<?xml version="1.0" standalone="no"?>
<!DOCTYPE svg PUBLIC "-//W3C//DTD SVG 20010904//EN"
 "http://www.w3.org/TR/2001/REC-SVG-20010904/DTD/svg10.dtd">
<svg version="1.0" xmlns="http://www.w3.org/2000/svg"
 width="225.000000pt" height="225.000000pt" viewBox="0 0 225.000000 225.000000"
 preserveAspectRatio="xMidYMid meet">

<g transform="translate(0.000000,225.000000) scale(0.100000,-0.100000)"
fill="#000000" stroke="none">
<path d="M0 2135 l0 -65 219 0 219 0 28 -82 c15 -46 45 -134 66 -195 l40 -113
68 0 68 0 -86 260 -87 260 -267 0 -268 0 0 -65z"/>
<path d="M907 1495 c-22 -7 -50 -24 -64 -37 -48 -43 -53 -72 -53 -284 0 -192
1 -198 25 -240 16 -28 39 -49 68 -63 42 -21 55 -21 633 -21 553 0 592 2 630
19 87 40 108 109 102 344 -4 178 -11 202 -68 250 -17 15 -47 31 -68 37 -23 6
-243 10 -602 10 -452 -1 -573 -4 -603 -15z m278 -157 c3 -2 2 -18 -1 -35 -6
-29 -7 -30 -56 -25 -35 3 -53 1 -58 -9 -12 -19 -4 -28 45 -49 64 -27 85 -53
85 -100 0 -72 -64 -110 -162 -97 -49 7 -58 15 -51 48 4 25 8 26 66 25 56 -1
62 1 62 19 0 14 -13 26 -41 40 -78 37 -104 78 -84 129 16 44 66 68 132 63 32
-2 60 -6 63 -9z m145 -48 c0 -25 4 -30 25 -30 21 0 25 -5 25 -30 0 -25 -4 -30
-25 -30 -24 0 -25 -3 -25 -55 0 -52 1 -55 26 -55 23 0 25 -3 22 -32 -3 -31 -6
-33 -44 -36 -60 -4 -84 28 -84 114 0 50 -3 64 -15 64 -10 0 -15 10 -15 30 0
20 5 30 15 30 9 0 15 9 15 24 0 25 13 33 58 35 18 1 22 -4 22 -29z m276 -64
c28 -28 34 -42 34 -75 0 -82 -49 -131 -131 -131 -109 0 -155 165 -61 223 15 9
48 17 76 17 42 0 53 -5 82 -34z m144 22 c0 -9 3 -9 12 0 7 7 25 12 40 12 25 0
28 -3 28 -35 0 -28 -4 -35 -19 -35 -46 0 -51 -8 -51 -91 l0 -79 -40 0 -40 0 0
120 0 120 35 0 c21 0 35 -5 35 -12z m281 -17 c23 -23 29 -39 29 -70 l0 -41
-77 0 -76 0 19 -21 c16 -17 27 -20 67 -16 43 4 48 2 53 -20 4 -13 3 -27 -1
-31 -4 -4 -38 -7 -77 -7 -67 0 -71 1 -100 34 -28 31 -30 39 -26 89 4 47 10 60
37 84 45 40 111 40 152 -1z"/>
<path d="M1496 1194 c-19 -18 -21 -85 -4 -102 32 -32 68 -1 68 57 0 28 -21 61
-40 61 -5 0 -16 -7 -24 -16z"/>
<path d="M1920 1190 c-10 -18 -8 -20 30 -20 41 0 49 7 28 28 -18 18 -46 14
-58 -8z"/>
<path d="M693 539 c-49 -24 -109 -87 -129 -135 -19 -44 -18 -145 1 -191 37
-87 114 -146 209 -159 96 -14 211 49 257 139 44 85 31 205 -31 279 -69 83
-212 114 -307 67z"/>
<path d="M1475 542 c-133 -62 -188 -225 -119 -353 113 -209 422 -167 474 65
23 103 -25 215 -114 271 -42 25 -61 30 -125 33 -58 2 -86 -2 -116 -16z"/>
</g>
</svg>
